<svg width="24" height="23" viewBox="0 0 24 23" fill="none" xmlns="http://www.w3.org/2000/svg">
<path d="M3.38333 16.5667C2.275 15.4 1.43403 14.1069 0.860417 12.6875C0.286806 11.2681 0 9.8 0 8.28333C0 6.76667 0.286806 5.29861 0.860417 3.87917C1.43403 2.45972 2.275 1.16667 3.38333 0L4.78333 1.4C3.85 2.33333 3.15 3.40764 2.68333 4.62292C2.21667 5.83819 1.98333 7.05833 1.98333 8.28333C1.98333 9.50833 2.21667 10.7285 2.68333 11.9438C3.15 13.159 3.85 14.2333 4.78333 15.1667L3.38333 16.5667ZM6.18333 13.7667C5.425 13.0083 4.84653 12.1528 4.44792 11.2C4.04931 10.2472 3.85 9.275 3.85 8.28333C3.85 7.29167 4.04931 6.31944 4.44792 5.36667C4.84653 4.41389 5.425 3.55833 6.18333 2.8L7.58333 4.2C7 4.725 6.5625 5.34722 6.27083 6.06667C5.97917 6.78611 5.83333 7.525 5.83333 8.28333C5.83333 8.98333 5.97917 9.69306 6.27083 10.4125C6.5625 11.1319 7 11.7833 7.58333 12.3667L6.18333 13.7667ZM5.83333 22.2833L9.77083 10.4708C9.45972 10.1986 9.21181 9.87778 9.02708 9.50833C8.84236 9.13889 8.75 8.73056 8.75 8.28333C8.75 7.46667 9.03195 6.77639 9.59583 6.2125C10.1597 5.64861 10.85 5.36667 11.6667 5.36667C12.4833 5.36667 13.1736 5.64861 13.7375 6.2125C14.3014 6.77639 14.5833 7.46667 14.5833 8.28333C14.5833 8.73056 14.491 9.13889 14.3062 9.50833C14.1215 9.87778 13.8736 10.1986 13.5625 10.4708L17.5 22.2833H15.1667L14.4083 19.95H8.95417L8.16667 22.2833H5.83333ZM9.7125 17.6167H13.6208L11.6667 11.7833L9.7125 17.6167ZM17.15 13.7667L15.75 12.3667C16.3333 11.8417 16.7708 11.2194 17.0625 10.5C17.3542 9.78056 17.5 9.04167 17.5 8.28333C17.5 7.58333 17.3542 6.87361 17.0625 6.15417C16.7708 5.43472 16.3333 4.78333 15.75 4.2L17.15 2.8C17.9083 3.55833 18.4722 4.41389 18.8417 5.36667C19.2111 6.31944 19.425 7.29167 19.4833 8.28333C19.4833 9.275 19.284 10.2472 18.8854 11.2C18.4868 12.1528 17.9083 13.0083 17.15 13.7667ZM19.95 16.5667L18.55 15.1667C19.4833 14.2333 20.1833 13.159 20.65 11.9438C21.1167 10.7285 21.35 9.50833 21.35 8.28333C21.35 7.05833 21.1167 5.83819 20.65 4.62292C20.1833 3.40764 19.4833 2.33333 18.55 1.4L19.95 0C21.0583 1.16667 21.8993 2.45972 22.4729 3.87917C23.0465 5.29861 23.3333 6.76667 23.3333 8.28333C23.3333 9.8 23.0611 11.2681 22.5167 12.6875C21.9722 14.1069 21.1167 15.4 19.95 16.5667Z" fill="white"/>
</svg>
